<?xml version="1.0" encoding="utf-8"?>
<!-- Uploaded to: SVG Repo, www.svgrepo.com, Generator: SVG Repo Mixer Tools -->
<svg fill="#000000" width="800px" height="800px" viewBox="0 0 32 32" version="1.1" xmlns="http://www.w3.org/2000/svg">
<title>speech-bubble</title>
<path d="M15.858 4.136c-7.772 0-14.072 4.661-14.072 10.412 0 3.234 1.992 6.123 5.119 8.033l-0.874 6.614 6.292-4.566c1.129 0.216 2.314 0.331 3.535 0.331 7.772 0 14.072-4.662 14.072-10.412s-6.3-10.412-14.072-10.412zM9.797 17.124c0.792 0 1.434 0.642 1.434 1.434s-0.642 1.434-1.434 1.434-1.434-0.642-1.434-1.434 0.642-1.434 1.434-1.434zM15.838 19.992c-0.792 0-1.434-0.642-1.434-1.434s0.642-1.434 1.434-1.434c0.792 0 1.434 0.642 1.434 1.434s-0.642 1.434-1.434 1.434zM22.069 19.992c-0.792 0-1.434-0.642-1.434-1.434s0.642-1.434 1.434-1.434c0.792 0 1.434 0.642 1.434 1.434s-0.642 1.434-1.434 1.434z"></path>
</svg>